<svg width="13" height="20" xmlns="http://www.w3.org/2000/svg"><path d="M5.12 1.76A5.18 5.18 0 0 1 8.75.28h2.75c.3 0 .55.25.55.55v3.6c0 .3-.25.55-.55.55H8.75c-.1 0-.2.04-.26.1a.34.34 0 0 0-.1.25v2.14h3.11a.55.55 0 0 1 .53.69l-.91 3.6a.55.55 0 0 1-.54.4h-2.2v6.65c0 .3-.24.55-.55.55H4.17a.55.55 0 0 1-.55-.55v-6.64h-2.2a.55.55 0 0 1-.55-.55v-3.6c0-.3.24-.55.55-.55h2.2V5.33a5 5 0 0 1 1.5-3.57zm3.63-.38c-1.07 0-2.1.42-2.86 1.16a3.9 3.9 0 0 0-1.17 2.79v2.7c0 .3-.25.54-.55.54h-2.2v2.5h2.2c.3 0 .55.25.55.55v6.64h2.56v-6.64c0-.3.25-.55.55-.55h2.33l.63-2.5H7.83a.55.55 0 0 1-.55-.55v-2.7a1.48 1.48 0 0 1 1.47-1.45h2.2V1.39h-2.2z"/></svg>